# xmcd
#
# Track frame offsets:
#   150
#   11260
#   27775
#   45032
#   61982
#   77525
#   94165
#   122017
#   139245
#   153542
#   170860
#   187170
#   204275
#   224600
#
# Disc length: 3233 seconds
#
# Revision: 0
# Processed by: cddbd v1.5PL3 Copyright (c) Steve Scherf et al.
# Submitted via: Media_Universe 3.0
#
DISCID=b90c9f0e
DTITLE=Dorothy Moore - Greatest Hits
DYEAR=1900
DGENRE=Blues
TTITLE0=We Can Love
TTITLE1=Misty Blue
TTITLE2=Funny How Time Slips Away
TTITLE3=For Old Time's
TTITLE4=We Should
TTITLE5=I Believe You
TTITLE6=With Pen In Hand
TTITLE7=Let The Music
TTITLE8=1-2-3- You And Me
TTITLE9=Special
TTITLE10=(We Need More)
TTITLE11=Talk To Me
TTITLE12=He Thinks I Still Care
TTITLE13=All Night Blue
EXTD=
EXTT0=
EXTT1=
EXTT2=
EXTT3=
EXTT4=
EXTT5=
EXTT6=
EXTT7=
EXTT8=
EXTT9=
EXTT10=
EXTT11=
EXTT12=
EXTT13=
PLAYORDER=
